Coordinates
version=1
nRows=16
nColumns=18
inDegrees=yes

Units are S.I. units (second, meters, Newtons, ...)
Angles are in degrees.

endheader
time	ground_thorax_rot_x	ground_thorax_rot_y	ground_thorax_rot_z	ground_thorax_tx	ground_thorax_ty	ground_thorax_tz	clav_prot	clav_elev	scapula_abduction	scapula_elevation	scapula_upward_rot	scapula_winging	plane_elv	shoulder_elv	axial_rot	elbow_flexion	pro_sup
      3.54000000	      0.70537269	     -7.06908385	    -10.37165842	     -0.00423131	      0.00403036	     -0.00078352	    -32.17815179	     10.65008352	      7.05615808	     -0.88083294	     66.11875732	     -8.18223251	     59.30720762	     70.66215795	     -8.29465616	      0.00000000	     34.32000000
      3.55000000	      0.63673409	     -7.12658242	    -10.36055192	     -0.00423131	      0.00403036	     -0.00078352	    -31.94935860	     10.64697078	      7.03471585	     -0.87588398	     65.61798742	     -8.12639985	     59.31089888	     70.85369503	    -13.12866574	      0.00000000	     34.32000000
      3.56000000	      0.54835914	     -7.10044424	    -10.52275198	     -0.00423131	      0.00403036	     -0.00078352	    -31.89913599	     10.47032657	      6.82583514	     -1.00066881	     65.21439314	     -8.09398826	     59.70648288	     70.38573160	    -11.82415877	      0.00000000	     34.32000000
      3.57000000	      0.64778633	     -7.15317343	    -10.45377367	     -0.00423131	      0.00403036	     -0.00078352	    -31.67811869	     10.62938362	      6.78910832	     -0.88170087	     64.76682618	     -8.06331079	     60.04393119	     69.69538768	    -11.85439467	      0.00000000	     34.32000000
      3.58000000	      0.66497151	     -7.05102820	    -10.39145320	     -0.00423131	      0.00403036	     -0.00078352	    -31.50274587	     10.52001743	      6.65521147	     -0.95022638	     64.21266930	     -8.00455055	     60.42087451	     69.02542492	    -10.89473355	      0.00000000	     34.32000000
      3.59000000	      0.68103238	     -7.08475713	    -10.38735832	     -0.00423131	      0.00403036	     -0.00078352	    -31.23106723	     10.50851729	      6.75983325	     -0.94170366	     63.76682545	     -7.93010576	     60.55194542	     68.48799153	    -10.16352509	      0.00000000	     34.32000000
      3.60000000	      0.76434728	     -7.18552135	    -10.32178752	     -0.00423131	      0.00403036	     -0.00078352	    -30.91780021	     10.63407025	      6.94384998	     -0.83470874	     63.37237113	     -7.86455092	     60.65772171	     68.08832585	     -9.79638059	      0.00000000	     34.32000000
      3.61000000	      0.60624098	     -7.15895271	    -10.35143616	     -0.00423131	      0.00403036	     -0.00078352	    -30.64315719	     10.49172388	      6.97146878	     -0.91399858	     62.78767461	     -7.77115720	     60.82365055	     67.79680199	     -9.14311947	      0.00000000	     34.32000000
      3.62000000	      0.85670762	     -7.08762484	    -10.55865834	     -0.00423131	      0.00403036	     -0.00078352	    -30.56375704	     10.49640319	      6.99758665	     -0.90500358	     62.65497611	     -7.75058419	     60.88250987	     67.56768718	     -9.16617423	      0.00000000	     34.32000000
      3.63000000	      0.93550173	     -7.20204574	    -10.29610488	     -0.00423131	      0.00403036	     -0.00078352	    -30.08848110	     10.78374180	      7.09476176	     -0.67170505	     61.88119775	     -7.66762993	     61.21343699	     67.29157045	     -9.19151361	      0.00000000	     34.32000000
      3.64000000	      1.23177085	     -7.18038558	    -10.50773741	     -0.00423131	      0.00403036	     -0.00078352	    -29.97384874	     10.77548597	      7.06199319	     -0.66764162	     61.60400045	     -7.63497849	     61.18597098	     66.97555998	     -9.16929816	      0.00000000	     34.32000000
      3.65000000	      0.96183986	     -6.96449032	    -10.11570686	     -0.00423131	      0.00403036	     -0.00078352	    -29.53550423	     10.80315616	      6.73352671	     -0.60463432	     60.33257256	     -7.51283365	     61.45467711	     66.53654557	     -8.92660020	      0.00000000	     34.32000000
      3.66000000	      0.88276236	     -6.73312865	    -10.32491385	     -0.00423131	      0.00403036	     -0.00078352	    -29.39575234	     10.47145171	      6.46647718	     -0.81141856	     59.62208365	     -7.41600884	     61.71413518	     66.26644847	     -8.07414670	      0.00000000	     34.32000000
      3.67000000	      1.04916870	     -6.57564251	     -9.97346358	     -0.00423131	      0.00403036	     -0.00078352	    -29.14796208	     10.95870881	      6.24353461	     -0.44690543	     59.02877564	     -7.40734181	     62.25978215	     65.76013861	     -8.42994108	      0.00000000	     34.32000000
      3.68000000	      0.71220910	     -6.33184993	    -10.16914039	     -0.00423131	      0.00403036	     -0.00078352	    -28.89043375	     10.48372992	      5.94272875	     -0.72911138	     57.98235092	     -7.24555239	     62.83662731	     66.00984084	     -7.57030975	      0.00000000	     34.32000000
      3.69000000	      0.97993867	     -6.20990975	    -10.33213552	     -0.00423131	      0.00403036	     -0.00078352	    -28.81970304	     10.51318214	      5.95774923	     -0.70026319	     57.86397796	     -7.22904521	     62.92641684	     65.73870652	     -7.60299159	      0.00000000	     34.32000000
